<svg id="Capa_1" enable-background="new 0 0 60 60" height="512" viewBox="0 0 60 60" width="512" xmlns="http://www.w3.org/2000/svg"><g id="Page-1"><g><path id="Shape" d="m30 0c-8.584-.017-16.762 3.652-22.458 10.073s-8.362 14.979-7.321 23.5c-.321 1.453-.069 2.974.705 4.246.051.085.12.154.175.235 4.166 14.947 19.042 24.25 34.305 21.454s25.874-16.77 24.47-32.223c-1.404-15.452-14.359-27.285-29.876-27.285zm-27.361 36.787c-.538-.879-.695-1.939-.435-2.936v-.001c.369-1.416 3.293-3.829 5.542-5.392 1.198 2.462 2.568 5.995 2.197 7.414-.26.997-.915 1.845-1.815 2.348-1.917 1.076-4.342.442-5.489-1.433zm27.361 21.213c-11.468-.019-21.77-7.019-26.012-17.674.196.084.397.157.601.22.508.133 1.031.201 1.557.201 1.042 0 2.067-.271 2.973-.787 1.369-.769 2.366-2.062 2.761-3.582.757-2.899-2.495-9.144-2.869-9.847-.131-.247-.36-.428-.63-.499-.271-.071-.558-.025-.794.127-2.009 1.292-3.875 2.794-5.565 4.481-.006-.213-.022-.428-.022-.64 0-15.464 12.536-28 28-28s28 12.536 28 28-12.536 28-28 28z"/><path d="m36.883 33.692c-.047-.288-.11-.574-.189-.856-.015-.053-.045-.178-.049-.189-1.036-3.353-4.134-5.642-7.645-5.647h-6c-4.416.005-7.995 3.584-8 8v4c.001 1.104.896 1.999 2 2h18c1.104-.001 1.999-.896 2-2v-4c-.003-.35-.028-.7-.077-1.048-.011-.087-.025-.173-.04-.26zm-19.883 1.308c.004-3.312 2.688-5.996 6-6h6c2.063.002 3.981 1.065 5.075 2.815-2.525-.156-6.663-.135-9.523 1.291-1.577.887-2.568 2.541-2.606 4.35-.002.016-.003.036-.004.057-.05.494-.063.992-.041 1.488h-4.901zm18 4h-11.098c-.024-.438-.013-.877.032-1.313.002-.016.003-.037.004-.058-.009-1.112.562-2.149 1.508-2.734 2.843-1.418 7.51-1.186 9.445-1.013.004.021.006.043.01.064.063.348.096.7.098 1.054v4z"/><path d="m43.62 26.032c-.271.071-.499.252-.63.499-.374.703-3.626 6.948-2.869 9.847.395 1.52 1.392 2.813 2.761 3.583.906.516 1.93.788 2.973.788.525-.001 1.048-.068 1.557-.201 1.531-.393 2.847-1.372 3.663-2.727.818-1.34 1.055-2.955.657-4.474-.757-2.899-6.648-6.756-7.317-7.186-.237-.152-.524-.198-.795-.129zm6.176 7.818c.261.998.104 2.058-.435 2.937-1.147 1.876-3.572 2.509-5.49 1.434-.899-.503-1.554-1.351-1.814-2.349-.37-1.416 1-4.95 2.197-7.414 2.249 1.562 5.172 3.974 5.542 5.392z"/><path d="m16 24c1.863.004 3.482-1.282 3.898-3.098.417-1.816-.479-3.679-2.158-4.487l.841-.601c.45-.321.554-.946.233-1.395-.321-.45-.946-.554-1.395-.233l-7 5c-.45.321-.554.946-.233 1.395.321.45.946.554 1.395.233l.467-.334c.239 2.003 1.935 3.514 3.952 3.52zm-.647-5.88c.206-.081.426-.122.647-.12 1.105 0 2 .895 2 2s-.895 2-2 2-2-.895-2-2c.001-.443.152-.873.428-1.22z"/><path d="m40.419 20.814c.45.321 1.074.217 1.395-.233s.217-1.074-.233-1.395l-7-5c-.45-.321-1.074-.217-1.395.233s-.217 1.074.233 1.395l.841.601c-1.726.83-2.619 2.769-2.128 4.62s2.229 3.092 4.139 2.956 3.455-1.609 3.68-3.511zm-2.419-.814c0 1.105-.895 2-2 2s-2-.895-2-2 .895-2 2-2c.221-.002.441.039.647.12l.924.66c.277.347.428.777.429 1.22z"/></g></g></svg>